<svg width="220" height="216" viewBox="0 0 220 216" fill="none" xmlns="http://www.w3.org/2000/svg">
<path d="M90.5171 161.35C88.6528 174.156 77.4438 184 63.8947 184C49.0412 184 37 172.169 37 157.575C37 144.263 47.0191 133.249 60.0526 131.418V85.5824C47.0191 83.7507 37 72.7374 37 59.425C37 44.8309 49.0412 33 63.8947 33C78.7483 33 90.7895 44.8309 90.7895 59.425C90.7895 72.7374 80.7704 83.7507 67.7368 85.5824V131.418C79.5155 133.073 88.8323 142.227 90.5171 153.8H125.368C140.222 153.8 152.263 141.969 152.263 127.375V123.332C139.23 121.501 129.211 110.487 129.211 97.175C129.211 82.5809 141.252 70.75 156.105 70.75C170.959 70.75 183 82.5809 183 97.175C183 110.487 172.981 121.501 159.947 123.332V127.375C159.947 146.139 144.466 161.35 125.368 161.35H90.5171ZM44.6842 157.575C44.6842 167.999 53.2851 176.45 63.8947 176.45C74.5044 176.45 83.1053 167.999 83.1053 157.575C83.1053 147.151 74.5044 138.7 63.8947 138.7C53.2851 138.7 44.6842 147.151 44.6842 157.575ZM44.6842 59.425C44.6842 69.8494 53.2851 78.3 63.8947 78.3C74.5044 78.3 83.1053 69.8494 83.1053 59.425C83.1053 49.0006 74.5044 40.55 63.8947 40.55C53.2851 40.55 44.6842 49.0006 44.6842 59.425ZM156.105 116.05C166.715 116.05 175.316 107.599 175.316 97.175C175.316 86.7506 166.715 78.3 156.105 78.3C145.496 78.3 136.895 86.7506 136.895 97.175C136.895 107.599 145.496 116.05 156.105 116.05Z" fill="black"/>
</svg>
