<svg width="1500" height="87" viewBox="0 0 1500 87" fill="none" xmlns="http://www.w3.org/2000/svg">
<path d="M72 3L1423.5 3" stroke="black" stroke-width="3" stroke-linecap="round"/>
<path d="M75 3C29.1934 6.0375 17.2849 39.9803 16 62" stroke="black" stroke-width="3"/>
<path d="M1482 62C1478.96 16.1934 1445.02 4.28488 1423 3" stroke="black" stroke-width="3"/>
<circle cx="16" cy="74" r="11.5" stroke="black" stroke-width="3"/>
<path d="M1480.94 85.0607C1481.53 85.6464 1482.47 85.6464 1483.06 85.0607L1492.61 75.5147C1493.19 74.9289 1493.19 73.9792 1492.61 73.3934C1492.02 72.8076 1491.07 72.8076 1490.49 73.3934L1482 81.8787L1473.51 73.3934C1472.93 72.8076 1471.98 72.8076 1471.39 73.3934C1470.81 73.9792 1470.81 74.9289 1471.39 75.5147L1480.94 85.0607ZM1480.5 61.5L1480.5 84L1483.5 84L1483.5 61.5L1480.5 61.5Z" fill="black"/>
</svg>
