<svg width="260" height="260" viewBox="0 0 260 260" fill="none" xmlns="http://www.w3.org/2000/svg">
<path d="M130 260C201.797 260 260 201.797 260 130C260 58.203 201.797 0 130 0C58.203 0 0 58.203 0 130C0 201.797 58.203 260 130 260Z" fill="#F11F24"/>
<path d="M106.006 37.0134L37.0133 106.006C23.7511 119.268 23.7511 140.77 37.0133 154.032L106.006 223.025C119.268 236.287 140.77 236.287 154.032 223.025L223.025 154.032C236.287 140.77 236.287 119.268 223.025 106.006L154.032 37.0133C140.77 23.7511 119.268 23.7512 106.006 37.0134Z" fill="#78FFC7"/>
<path d="M130.08 188.96C163.814 188.96 191.16 162.554 191.16 129.98C191.16 97.4062 163.814 71 130.08 71C96.3465 71 69 97.4062 69 129.98C69 162.554 96.3465 188.96 130.08 188.96Z" fill="#7D4CCF"/>
</svg>
