<svg width="216" height="216" viewBox="0 0 216 216" fill="none" xmlns="http://www.w3.org/2000/svg">
<path d="M84.375 57.375C84.3763 52.1786 82.8781 47.0923 80.0601 42.7263C77.2422 38.3604 73.2242 34.9004 68.4884 32.7615C63.7527 30.6227 58.5003 29.8958 53.3617 30.6683C48.223 31.4407 43.4164 33.6795 39.5187 37.1161C35.621 40.5527 32.7978 45.041 31.3879 50.0425C29.978 55.0439 30.0413 60.3459 31.5701 65.3123C33.099 70.2787 36.0286 74.6983 40.0072 78.0409C43.9858 81.3835 48.8444 83.507 54 84.1565V131.843C47.1858 132.702 40.9548 136.125 36.5755 141.416C32.1963 146.707 29.9979 153.468 30.428 160.323C30.8581 167.177 33.8843 173.61 38.8906 178.312C43.8969 183.014 50.5069 185.632 57.375 185.632C64.2432 185.632 70.8532 183.014 75.8595 178.312C80.8657 173.61 83.8919 167.177 84.322 160.323C84.7522 153.468 82.5538 146.707 78.1746 141.416C73.7953 136.125 67.5643 132.702 60.75 131.843V84.1565C67.2707 83.3275 73.2659 80.1513 77.6142 75.222C81.9625 70.2927 84.366 63.9481 84.375 57.375ZM37.125 57.375C37.125 53.3699 38.3127 49.4548 40.5378 46.1247C42.7629 42.7946 45.9255 40.1991 49.6257 38.6664C53.3259 37.1338 57.3975 36.7327 61.3256 37.5141C65.2537 38.2954 68.8619 40.2241 71.694 43.0561C74.526 45.8881 76.4546 49.4963 77.2359 53.4244C78.0173 57.3525 77.6163 61.4241 76.0836 65.1243C74.5509 68.8245 71.9554 71.9872 68.6253 74.2123C65.2952 76.4374 61.3801 77.625 57.375 77.625C52.0063 77.6189 46.8591 75.4835 43.0628 71.6872C39.2665 67.8909 37.1311 62.7438 37.125 57.375ZM77.625 158.625C77.625 162.63 76.4374 166.545 74.2123 169.875C71.9872 173.205 68.8246 175.801 65.1244 177.334C61.4242 178.866 57.3526 179.267 53.4245 178.486C49.4963 177.705 45.8881 175.776 43.0561 172.944C40.2241 170.112 38.2955 166.504 37.5141 162.576C36.7328 158.647 37.1338 154.576 38.6665 150.876C40.1992 147.175 42.7946 144.013 46.1247 141.788C49.4548 139.563 53.37 138.375 57.375 138.375C62.7438 138.381 67.8909 140.516 71.6872 144.313C75.4835 148.109 77.619 153.256 77.625 158.625ZM162.003 131.843L162.001 101.15C162.016 95.3857 160.888 89.6762 158.682 84.3512C156.477 79.0262 153.237 74.1915 149.15 70.1269L122.898 43.875H148.5C149.395 43.875 150.254 43.5194 150.887 42.8865C151.519 42.2535 151.875 41.3951 151.875 40.5C151.875 39.6049 151.519 38.7464 150.887 38.1135C150.254 37.4806 149.395 37.125 148.5 37.125H114.75C114.74 37.125 114.731 37.1278 114.721 37.1279C114.509 37.1293 114.297 37.1507 114.089 37.1917C113.991 37.2112 113.9 37.248 113.805 37.2759C113.688 37.3054 113.572 37.3413 113.458 37.3834C113.352 37.4322 113.249 37.4866 113.149 37.5464C113.058 37.5955 112.964 37.6356 112.878 37.6936C112.695 37.8155 112.524 37.9548 112.368 38.1096L112.364 38.1133C112.207 38.2707 112.066 38.4432 111.943 38.6282C111.888 38.7115 111.849 38.8016 111.802 38.8885C111.67 39.0914 111.577 39.3168 111.526 39.5533C111.498 39.6488 111.462 39.7401 111.442 39.8389C111.398 40.0565 111.375 40.278 111.375 40.5V74.25C111.375 75.1451 111.731 76.0035 112.364 76.6365C112.996 77.2694 113.855 77.625 114.75 77.625C115.645 77.625 116.504 77.2694 117.137 76.6365C117.769 76.0035 118.125 75.1451 118.125 74.25V48.6477L144.378 74.8997C147.836 78.339 150.577 82.43 152.443 86.9358C154.31 91.4416 155.264 96.2728 155.251 101.15L155.253 131.844C148.438 132.702 142.207 136.125 137.828 141.416C133.449 146.707 131.251 153.468 131.681 160.323C132.111 167.177 135.137 173.61 140.144 178.312C145.15 183.014 151.76 185.631 158.628 185.631C165.496 185.631 172.106 183.014 177.112 178.312C182.118 173.61 185.144 167.177 185.575 160.322C186.005 153.468 183.806 146.707 179.427 141.416C175.048 136.125 168.817 132.702 162.003 131.843ZM158.628 178.875C154.622 178.875 150.707 177.687 147.377 175.462C144.047 173.237 141.452 170.075 139.919 166.374C138.386 162.674 137.985 158.603 138.767 154.674C139.548 150.746 141.477 147.138 144.309 144.306C147.141 141.474 150.749 139.545 154.677 138.764C158.605 137.983 162.677 138.384 166.377 139.916C170.077 141.449 173.24 144.045 175.465 147.375C177.69 150.705 178.878 154.62 178.878 158.625C178.871 163.994 176.736 169.141 172.94 172.937C169.143 176.734 163.996 178.869 158.628 178.875Z" fill="black"/>
</svg>
